<mxfile host="app.diagrams.net" modified="2024-06-18T19:24:02.592Z" agent="Mozilla/5.0 (Windows NT 10.0; Win64; x64) AppleWebKit/537.36 (KHTML, like Gecko) Chrome/122.0.0.0 YaBrowser/24.4.0.0 Safari/537.36" etag="mjnuN3gNdIcfLOzracQf" version="24.5.5" type="device">
  <diagram id="C5RBs43oDa-KdzZeNtuy" name="Page-1">
    <mxGraphModel dx="1499" dy="916" grid="1" gridSize="10" guides="1" tooltips="1" connect="1" arrows="1" fold="1" page="1" pageScale="1" pageWidth="827" pageHeight="1169" math="0" shadow="0">
      <root>
        <mxCell id="WIyWlLk6GJQsqaUBKTNV-0" />
        <mxCell id="WIyWlLk6GJQsqaUBKTNV-1" parent="WIyWlLk6GJQsqaUBKTNV-0" />
        <mxCell id="WMOx6KS_vKrs0a5ZA2XA-5" value="&lt;b&gt;IChart&lt;/b&gt;" style="swimlane;fontStyle=1;align=center;verticalAlign=top;childLayout=stackLayout;horizontal=1;startSize=26;horizontalStack=0;resizeParent=1;resizeParentMax=0;resizeLast=0;collapsible=1;marginBottom=0;whiteSpace=wrap;html=1;" vertex="1" parent="WIyWlLk6GJQsqaUBKTNV-1">
          <mxGeometry x="400" y="600" width="360" height="112" as="geometry" />
        </mxCell>
        <mxCell id="WMOx6KS_vKrs0a5ZA2XA-7" value="" style="line;strokeWidth=1;fillColor=none;align=left;verticalAlign=middle;spacingTop=-1;spacingLeft=3;spacingRight=3;rotatable=0;labelPosition=right;points=[];portConstraint=eastwest;strokeColor=inherit;" vertex="1" parent="WMOx6KS_vKrs0a5ZA2XA-5">
          <mxGeometry y="26" width="360" height="8" as="geometry" />
        </mxCell>
        <mxCell id="WMOx6KS_vKrs0a5ZA2XA-8" value="&lt;i&gt;- getSeries(sizesMap: QMap&amp;lt;String, Integer&amp;gt;): QAbstractSeries&lt;/i&gt;" style="text;strokeColor=none;fillColor=none;align=left;verticalAlign=top;spacingLeft=4;spacingRight=4;overflow=hidden;rotatable=0;points=[[0,0.5],[1,0.5]];portConstraint=eastwest;whiteSpace=wrap;html=1;" vertex="1" parent="WMOx6KS_vKrs0a5ZA2XA-5">
          <mxGeometry y="34" width="360" height="26" as="geometry" />
        </mxCell>
        <mxCell id="WMOx6KS_vKrs0a5ZA2XA-9" value="- setLegend(legend: QLegend)" style="text;strokeColor=none;fillColor=none;align=left;verticalAlign=top;spacingLeft=4;spacingRight=4;overflow=hidden;rotatable=0;points=[[0,0.5],[1,0.5]];portConstraint=eastwest;whiteSpace=wrap;html=1;" vertex="1" parent="WMOx6KS_vKrs0a5ZA2XA-5">
          <mxGeometry y="60" width="360" height="26" as="geometry" />
        </mxCell>
        <mxCell id="WMOx6KS_vKrs0a5ZA2XA-10" value="+&amp;nbsp;CreateChart(sizesMap:&amp;nbsp;QMap&amp;lt;String, Integer&amp;gt;):&amp;nbsp;QChart" style="text;strokeColor=none;fillColor=none;align=left;verticalAlign=top;spacingLeft=4;spacingRight=4;overflow=hidden;rotatable=0;points=[[0,0.5],[1,0.5]];portConstraint=eastwest;whiteSpace=wrap;html=1;" vertex="1" parent="WMOx6KS_vKrs0a5ZA2XA-5">
          <mxGeometry y="86" width="360" height="26" as="geometry" />
        </mxCell>
        <mxCell id="WMOx6KS_vKrs0a5ZA2XA-11" value="BarChart" style="swimlane;fontStyle=1;align=center;verticalAlign=top;childLayout=stackLayout;horizontal=1;startSize=26;horizontalStack=0;resizeParent=1;resizeParentMax=0;resizeLast=0;collapsible=1;marginBottom=0;whiteSpace=wrap;html=1;" vertex="1" parent="WIyWlLk6GJQsqaUBKTNV-1">
          <mxGeometry y="600" width="360" height="60" as="geometry" />
        </mxCell>
        <mxCell id="WMOx6KS_vKrs0a5ZA2XA-12" value="" style="line;strokeWidth=1;fillColor=none;align=left;verticalAlign=middle;spacingTop=-1;spacingLeft=3;spacingRight=3;rotatable=0;labelPosition=right;points=[];portConstraint=eastwest;strokeColor=inherit;" vertex="1" parent="WMOx6KS_vKrs0a5ZA2XA-11">
          <mxGeometry y="26" width="360" height="8" as="geometry" />
        </mxCell>
        <mxCell id="WMOx6KS_vKrs0a5ZA2XA-13" value="- getSeries(sizesMap: QMap&amp;lt;String, Integer&amp;gt;): QAbstractSeries" style="text;strokeColor=none;fillColor=none;align=left;verticalAlign=top;spacingLeft=4;spacingRight=4;overflow=hidden;rotatable=0;points=[[0,0.5],[1,0.5]];portConstraint=eastwest;whiteSpace=wrap;html=1;" vertex="1" parent="WMOx6KS_vKrs0a5ZA2XA-11">
          <mxGeometry y="34" width="360" height="26" as="geometry" />
        </mxCell>
        <mxCell id="WMOx6KS_vKrs0a5ZA2XA-16" value="" style="endArrow=block;dashed=1;endFill=0;endSize=12;html=1;rounded=0;fontSize=12;curved=1;" edge="1" parent="WIyWlLk6GJQsqaUBKTNV-1" source="WMOx6KS_vKrs0a5ZA2XA-11" target="WMOx6KS_vKrs0a5ZA2XA-5">
          <mxGeometry width="160" relative="1" as="geometry">
            <mxPoint x="670" y="1000" as="sourcePoint" />
            <mxPoint x="830" y="1000" as="targetPoint" />
          </mxGeometry>
        </mxCell>
        <mxCell id="WMOx6KS_vKrs0a5ZA2XA-17" value="PieChart" style="swimlane;fontStyle=1;align=center;verticalAlign=top;childLayout=stackLayout;horizontal=1;startSize=26;horizontalStack=0;resizeParent=1;resizeParentMax=0;resizeLast=0;collapsible=1;marginBottom=0;whiteSpace=wrap;html=1;" vertex="1" parent="WIyWlLk6GJQsqaUBKTNV-1">
          <mxGeometry x="800" y="600" width="360" height="60" as="geometry" />
        </mxCell>
        <mxCell id="WMOx6KS_vKrs0a5ZA2XA-18" value="" style="line;strokeWidth=1;fillColor=none;align=left;verticalAlign=middle;spacingTop=-1;spacingLeft=3;spacingRight=3;rotatable=0;labelPosition=right;points=[];portConstraint=eastwest;strokeColor=inherit;" vertex="1" parent="WMOx6KS_vKrs0a5ZA2XA-17">
          <mxGeometry y="26" width="360" height="8" as="geometry" />
        </mxCell>
        <mxCell id="WMOx6KS_vKrs0a5ZA2XA-19" value="- getSeries(sizesMap: QMap&amp;lt;String, Integer&amp;gt;): QAbstractSeries" style="text;strokeColor=none;fillColor=none;align=left;verticalAlign=top;spacingLeft=4;spacingRight=4;overflow=hidden;rotatable=0;points=[[0,0.5],[1,0.5]];portConstraint=eastwest;whiteSpace=wrap;html=1;" vertex="1" parent="WMOx6KS_vKrs0a5ZA2XA-17">
          <mxGeometry y="34" width="360" height="26" as="geometry" />
        </mxCell>
        <mxCell id="WMOx6KS_vKrs0a5ZA2XA-20" value="" style="endArrow=block;dashed=1;endFill=0;endSize=12;html=1;rounded=0;fontSize=12;curved=1;" edge="1" parent="WIyWlLk6GJQsqaUBKTNV-1" source="WMOx6KS_vKrs0a5ZA2XA-17" target="WMOx6KS_vKrs0a5ZA2XA-5">
          <mxGeometry width="160" relative="1" as="geometry">
            <mxPoint x="510" y="880" as="sourcePoint" />
            <mxPoint x="510" y="832" as="targetPoint" />
          </mxGeometry>
        </mxCell>
        <mxCell id="WMOx6KS_vKrs0a5ZA2XA-21" value="QAbstractTableModel" style="swimlane;fontStyle=1;align=center;verticalAlign=top;childLayout=stackLayout;horizontal=1;startSize=26;horizontalStack=0;resizeParent=1;resizeParentMax=0;resizeLast=0;collapsible=1;marginBottom=0;whiteSpace=wrap;html=1;" vertex="1" collapsed="1" parent="WIyWlLk6GJQsqaUBKTNV-1">
          <mxGeometry width="440" height="30" as="geometry">
            <mxRectangle x="440" y="160" width="160" height="34" as="alternateBounds" />
          </mxGeometry>
        </mxCell>
        <mxCell id="WMOx6KS_vKrs0a5ZA2XA-23" value="" style="line;strokeWidth=1;fillColor=none;align=left;verticalAlign=middle;spacingTop=-1;spacingLeft=3;spacingRight=3;rotatable=0;labelPosition=right;points=[];portConstraint=eastwest;strokeColor=inherit;" vertex="1" parent="WMOx6KS_vKrs0a5ZA2XA-21">
          <mxGeometry y="26" width="160" height="8" as="geometry" />
        </mxCell>
        <mxCell id="WMOx6KS_vKrs0a5ZA2XA-25" value="FileBrowserModel" style="swimlane;fontStyle=1;align=center;verticalAlign=top;childLayout=stackLayout;horizontal=1;startSize=26;horizontalStack=0;resizeParent=1;resizeParentMax=0;resizeLast=0;collapsible=1;marginBottom=0;whiteSpace=wrap;html=1;" vertex="1" parent="WIyWlLk6GJQsqaUBKTNV-1">
          <mxGeometry y="80" width="440" height="268" as="geometry" />
        </mxCell>
        <mxCell id="WMOx6KS_vKrs0a5ZA2XA-26" value="&lt;u&gt;-&amp;nbsp;HEADER:&amp;nbsp;QList&amp;lt;String&amp;gt; = {&amp;nbsp;&quot;Name&quot;, &quot;Size&quot;, &quot;Percent&quot; }&lt;/u&gt;" style="text;strokeColor=none;fillColor=none;align=left;verticalAlign=top;spacingLeft=4;spacingRight=4;overflow=hidden;rotatable=0;points=[[0,0.5],[1,0.5]];portConstraint=eastwest;whiteSpace=wrap;html=1;" vertex="1" parent="WMOx6KS_vKrs0a5ZA2XA-25">
          <mxGeometry y="26" width="440" height="26" as="geometry" />
        </mxCell>
        <mxCell id="WMOx6KS_vKrs0a5ZA2XA-30" value="-&amp;nbsp;entrances:&amp;nbsp;QList&amp;lt;QList&amp;lt;String&amp;gt;&amp;gt;" style="text;strokeColor=none;fillColor=none;align=left;verticalAlign=top;spacingLeft=4;spacingRight=4;overflow=hidden;rotatable=0;points=[[0,0.5],[1,0.5]];portConstraint=eastwest;whiteSpace=wrap;html=1;" vertex="1" parent="WMOx6KS_vKrs0a5ZA2XA-25">
          <mxGeometry y="52" width="440" height="26" as="geometry" />
        </mxCell>
        <mxCell id="WMOx6KS_vKrs0a5ZA2XA-27" value="" style="line;strokeWidth=1;fillColor=none;align=left;verticalAlign=middle;spacingTop=-1;spacingLeft=3;spacingRight=3;rotatable=0;labelPosition=right;points=[];portConstraint=eastwest;strokeColor=inherit;" vertex="1" parent="WMOx6KS_vKrs0a5ZA2XA-25">
          <mxGeometry y="78" width="440" height="8" as="geometry" />
        </mxCell>
        <mxCell id="WMOx6KS_vKrs0a5ZA2XA-28" value="-&amp;nbsp;uint64ToPercent(part: Integer, whole: Real, precision: Integer): String" style="text;strokeColor=none;fillColor=none;align=left;verticalAlign=top;spacingLeft=4;spacingRight=4;overflow=hidden;rotatable=0;points=[[0,0.5],[1,0.5]];portConstraint=eastwest;whiteSpace=wrap;html=1;" vertex="1" parent="WMOx6KS_vKrs0a5ZA2XA-25">
          <mxGeometry y="86" width="440" height="26" as="geometry" />
        </mxCell>
        <mxCell id="WMOx6KS_vKrs0a5ZA2XA-36" value="-&amp;nbsp;uint64ToSmart(size: Integer): String" style="text;strokeColor=none;fillColor=none;align=left;verticalAlign=top;spacingLeft=4;spacingRight=4;overflow=hidden;rotatable=0;points=[[0,0.5],[1,0.5]];portConstraint=eastwest;whiteSpace=wrap;html=1;" vertex="1" parent="WMOx6KS_vKrs0a5ZA2XA-25">
          <mxGeometry y="112" width="440" height="26" as="geometry" />
        </mxCell>
        <mxCell id="WMOx6KS_vKrs0a5ZA2XA-33" value="+&amp;nbsp;setData(sizesMap: QMap&amp;lt;String, Integer&amp;gt;)" style="text;strokeColor=none;fillColor=none;align=left;verticalAlign=top;spacingLeft=4;spacingRight=4;overflow=hidden;rotatable=0;points=[[0,0.5],[1,0.5]];portConstraint=eastwest;whiteSpace=wrap;html=1;" vertex="1" parent="WMOx6KS_vKrs0a5ZA2XA-25">
          <mxGeometry y="138" width="440" height="26" as="geometry" />
        </mxCell>
        <mxCell id="WMOx6KS_vKrs0a5ZA2XA-34" value="+&amp;nbsp;rowCount(parent: QModelIndex): Integer" style="text;strokeColor=none;fillColor=none;align=left;verticalAlign=top;spacingLeft=4;spacingRight=4;overflow=hidden;rotatable=0;points=[[0,0.5],[1,0.5]];portConstraint=eastwest;whiteSpace=wrap;html=1;" vertex="1" parent="WMOx6KS_vKrs0a5ZA2XA-25">
          <mxGeometry y="164" width="440" height="26" as="geometry" />
        </mxCell>
        <mxCell id="WMOx6KS_vKrs0a5ZA2XA-39" value="+&amp;nbsp;columnCount(parent: QModelIndex): Integer" style="text;strokeColor=none;fillColor=none;align=left;verticalAlign=top;spacingLeft=4;spacingRight=4;overflow=hidden;rotatable=0;points=[[0,0.5],[1,0.5]];portConstraint=eastwest;whiteSpace=wrap;html=1;" vertex="1" parent="WMOx6KS_vKrs0a5ZA2XA-25">
          <mxGeometry y="190" width="440" height="26" as="geometry" />
        </mxCell>
        <mxCell id="WMOx6KS_vKrs0a5ZA2XA-40" value="+&amp;nbsp;headerData(section: Integer, orientation: Orientation, role: Integer):&amp;nbsp;QVariant" style="text;strokeColor=none;fillColor=none;align=left;verticalAlign=top;spacingLeft=4;spacingRight=4;overflow=hidden;rotatable=0;points=[[0,0.5],[1,0.5]];portConstraint=eastwest;whiteSpace=wrap;html=1;" vertex="1" parent="WMOx6KS_vKrs0a5ZA2XA-25">
          <mxGeometry y="216" width="440" height="26" as="geometry" />
        </mxCell>
        <mxCell id="WMOx6KS_vKrs0a5ZA2XA-41" value="+&amp;nbsp;data(index:&amp;nbsp;QModelIndex, role: Integer):&amp;nbsp;QVariant" style="text;strokeColor=none;fillColor=none;align=left;verticalAlign=top;spacingLeft=4;spacingRight=4;overflow=hidden;rotatable=0;points=[[0,0.5],[1,0.5]];portConstraint=eastwest;whiteSpace=wrap;html=1;" vertex="1" parent="WMOx6KS_vKrs0a5ZA2XA-25">
          <mxGeometry y="242" width="440" height="26" as="geometry" />
        </mxCell>
        <mxCell id="WMOx6KS_vKrs0a5ZA2XA-29" value="" style="endArrow=block;endSize=16;endFill=0;html=1;rounded=0;fontSize=12;curved=1;" edge="1" parent="WIyWlLk6GJQsqaUBKTNV-1" source="WMOx6KS_vKrs0a5ZA2XA-25" target="WMOx6KS_vKrs0a5ZA2XA-21">
          <mxGeometry width="160" relative="1" as="geometry">
            <mxPoint x="-50" y="290" as="sourcePoint" />
            <mxPoint x="110" y="290" as="targetPoint" />
          </mxGeometry>
        </mxCell>
        <mxCell id="WMOx6KS_vKrs0a5ZA2XA-42" value="IObserver" style="swimlane;fontStyle=1;align=center;verticalAlign=top;childLayout=stackLayout;horizontal=1;startSize=26;horizontalStack=0;resizeParent=1;resizeParentMax=0;resizeLast=0;collapsible=1;marginBottom=0;whiteSpace=wrap;html=1;" vertex="1" parent="WIyWlLk6GJQsqaUBKTNV-1">
          <mxGeometry x="480" width="360" height="60" as="geometry" />
        </mxCell>
        <mxCell id="WMOx6KS_vKrs0a5ZA2XA-44" value="" style="line;strokeWidth=1;fillColor=none;align=left;verticalAlign=middle;spacingTop=-1;spacingLeft=3;spacingRight=3;rotatable=0;labelPosition=right;points=[];portConstraint=eastwest;strokeColor=inherit;" vertex="1" parent="WMOx6KS_vKrs0a5ZA2XA-42">
          <mxGeometry y="26" width="360" height="8" as="geometry" />
        </mxCell>
        <mxCell id="WMOx6KS_vKrs0a5ZA2XA-45" value="&lt;i&gt;+&amp;nbsp;updateDisplay(sizesMap: QMap&amp;lt;String, Integer&amp;gt;)&lt;/i&gt;" style="text;strokeColor=none;fillColor=none;align=left;verticalAlign=top;spacingLeft=4;spacingRight=4;overflow=hidden;rotatable=0;points=[[0,0.5],[1,0.5]];portConstraint=eastwest;whiteSpace=wrap;html=1;" vertex="1" parent="WMOx6KS_vKrs0a5ZA2XA-42">
          <mxGeometry y="34" width="360" height="26" as="geometry" />
        </mxCell>
        <mxCell id="WMOx6KS_vKrs0a5ZA2XA-46" value="IObservable" style="swimlane;fontStyle=1;align=center;verticalAlign=top;childLayout=stackLayout;horizontal=1;startSize=26;horizontalStack=0;resizeParent=1;resizeParentMax=0;resizeLast=0;collapsible=1;marginBottom=0;whiteSpace=wrap;html=1;" vertex="1" parent="WIyWlLk6GJQsqaUBKTNV-1">
          <mxGeometry x="880" width="320" height="112" as="geometry" />
        </mxCell>
        <mxCell id="WMOx6KS_vKrs0a5ZA2XA-48" value="" style="line;strokeWidth=1;fillColor=none;align=left;verticalAlign=middle;spacingTop=-1;spacingLeft=3;spacingRight=3;rotatable=0;labelPosition=right;points=[];portConstraint=eastwest;strokeColor=inherit;" vertex="1" parent="WMOx6KS_vKrs0a5ZA2XA-46">
          <mxGeometry y="26" width="320" height="8" as="geometry" />
        </mxCell>
        <mxCell id="WMOx6KS_vKrs0a5ZA2XA-49" value="+&amp;nbsp;addObserver(observer: IObserver): Boolean" style="text;strokeColor=none;fillColor=none;align=left;verticalAlign=top;spacingLeft=4;spacingRight=4;overflow=hidden;rotatable=0;points=[[0,0.5],[1,0.5]];portConstraint=eastwest;whiteSpace=wrap;html=1;" vertex="1" parent="WMOx6KS_vKrs0a5ZA2XA-46">
          <mxGeometry y="34" width="320" height="26" as="geometry" />
        </mxCell>
        <mxCell id="WMOx6KS_vKrs0a5ZA2XA-52" value="+&amp;nbsp;delObserver(observer: IObserver): Boolean" style="text;strokeColor=none;fillColor=none;align=left;verticalAlign=top;spacingLeft=4;spacingRight=4;overflow=hidden;rotatable=0;points=[[0,0.5],[1,0.5]];portConstraint=eastwest;whiteSpace=wrap;html=1;" vertex="1" parent="WMOx6KS_vKrs0a5ZA2XA-46">
          <mxGeometry y="60" width="320" height="26" as="geometry" />
        </mxCell>
        <mxCell id="WMOx6KS_vKrs0a5ZA2XA-53" value="&lt;i&gt;+&amp;nbsp;selectionEvent(sizesMap: QMap&amp;lt;String, Integer&amp;gt;)&lt;/i&gt;" style="text;strokeColor=none;fillColor=none;align=left;verticalAlign=top;spacingLeft=4;spacingRight=4;overflow=hidden;rotatable=0;points=[[0,0.5],[1,0.5]];portConstraint=eastwest;whiteSpace=wrap;html=1;" vertex="1" parent="WMOx6KS_vKrs0a5ZA2XA-46">
          <mxGeometry y="86" width="320" height="26" as="geometry" />
        </mxCell>
        <mxCell id="WMOx6KS_vKrs0a5ZA2XA-50" value="" style="endArrow=diamondThin;endFill=0;endSize=24;html=1;rounded=0;fontSize=12;curved=1;" edge="1" parent="WIyWlLk6GJQsqaUBKTNV-1" source="WMOx6KS_vKrs0a5ZA2XA-42" target="WMOx6KS_vKrs0a5ZA2XA-46">
          <mxGeometry width="160" relative="1" as="geometry">
            <mxPoint x="810" y="140" as="sourcePoint" />
            <mxPoint x="970" y="140" as="targetPoint" />
          </mxGeometry>
        </mxCell>
        <mxCell id="WMOx6KS_vKrs0a5ZA2XA-54" value="ISizeMapper" style="swimlane;fontStyle=1;align=center;verticalAlign=top;childLayout=stackLayout;horizontal=1;startSize=26;horizontalStack=0;resizeParent=1;resizeParentMax=0;resizeLast=0;collapsible=1;marginBottom=0;whiteSpace=wrap;html=1;" vertex="1" parent="WIyWlLk6GJQsqaUBKTNV-1">
          <mxGeometry x="880" y="198" width="320" height="86" as="geometry" />
        </mxCell>
        <mxCell id="WMOx6KS_vKrs0a5ZA2XA-56" value="" style="line;strokeWidth=1;fillColor=none;align=left;verticalAlign=middle;spacingTop=-1;spacingLeft=3;spacingRight=3;rotatable=0;labelPosition=right;points=[];portConstraint=eastwest;strokeColor=inherit;" vertex="1" parent="WMOx6KS_vKrs0a5ZA2XA-54">
          <mxGeometry y="26" width="320" height="8" as="geometry" />
        </mxCell>
        <mxCell id="WMOx6KS_vKrs0a5ZA2XA-57" value="&lt;i&gt;+&amp;nbsp;getSizesMap(dirPath: String)&lt;/i&gt;" style="text;strokeColor=none;fillColor=none;align=left;verticalAlign=top;spacingLeft=4;spacingRight=4;overflow=hidden;rotatable=0;points=[[0,0.5],[1,0.5]];portConstraint=eastwest;whiteSpace=wrap;html=1;" vertex="1" parent="WMOx6KS_vKrs0a5ZA2XA-54">
          <mxGeometry y="34" width="320" height="26" as="geometry" />
        </mxCell>
        <mxCell id="WMOx6KS_vKrs0a5ZA2XA-59" value="+&amp;nbsp;selectionEvent(sizesMap: QMap&amp;lt;String, Integer&amp;gt;)" style="text;strokeColor=none;fillColor=none;align=left;verticalAlign=top;spacingLeft=4;spacingRight=4;overflow=hidden;rotatable=0;points=[[0,0.5],[1,0.5]];portConstraint=eastwest;whiteSpace=wrap;html=1;" vertex="1" parent="WMOx6KS_vKrs0a5ZA2XA-54">
          <mxGeometry y="60" width="320" height="26" as="geometry" />
        </mxCell>
        <mxCell id="WMOx6KS_vKrs0a5ZA2XA-58" value="" style="endArrow=block;dashed=1;endFill=0;endSize=12;html=1;rounded=0;fontSize=12;curved=1;" edge="1" parent="WIyWlLk6GJQsqaUBKTNV-1" source="WMOx6KS_vKrs0a5ZA2XA-54" target="WMOx6KS_vKrs0a5ZA2XA-46">
          <mxGeometry width="160" relative="1" as="geometry">
            <mxPoint x="980" y="140" as="sourcePoint" />
            <mxPoint x="1140" y="140" as="targetPoint" />
          </mxGeometry>
        </mxCell>
        <mxCell id="WMOx6KS_vKrs0a5ZA2XA-60" value="DirSizeMapper" style="swimlane;fontStyle=1;align=center;verticalAlign=top;childLayout=stackLayout;horizontal=1;startSize=26;horizontalStack=0;resizeParent=1;resizeParentMax=0;resizeLast=0;collapsible=1;marginBottom=0;whiteSpace=wrap;html=1;" vertex="1" parent="WIyWlLk6GJQsqaUBKTNV-1">
          <mxGeometry x="1240" y="198" width="320" height="86" as="geometry" />
        </mxCell>
        <mxCell id="WMOx6KS_vKrs0a5ZA2XA-62" value="" style="line;strokeWidth=1;fillColor=none;align=left;verticalAlign=middle;spacingTop=-1;spacingLeft=3;spacingRight=3;rotatable=0;labelPosition=right;points=[];portConstraint=eastwest;strokeColor=inherit;" vertex="1" parent="WMOx6KS_vKrs0a5ZA2XA-60">
          <mxGeometry y="26" width="320" height="8" as="geometry" />
        </mxCell>
        <mxCell id="WMOx6KS_vKrs0a5ZA2XA-63" value="-&amp;nbsp;getDirSize(fileInfo: QFileInfo): Integer" style="text;strokeColor=none;fillColor=none;align=left;verticalAlign=top;spacingLeft=4;spacingRight=4;overflow=hidden;rotatable=0;points=[[0,0.5],[1,0.5]];portConstraint=eastwest;whiteSpace=wrap;html=1;" vertex="1" parent="WMOx6KS_vKrs0a5ZA2XA-60">
          <mxGeometry y="34" width="320" height="26" as="geometry" />
        </mxCell>
        <mxCell id="WMOx6KS_vKrs0a5ZA2XA-65" value="+&amp;nbsp;getSizesMap(dirPath: String)" style="text;strokeColor=none;fillColor=none;align=left;verticalAlign=top;spacingLeft=4;spacingRight=4;overflow=hidden;rotatable=0;points=[[0,0.5],[1,0.5]];portConstraint=eastwest;whiteSpace=wrap;html=1;" vertex="1" parent="WMOx6KS_vKrs0a5ZA2XA-60">
          <mxGeometry y="60" width="320" height="26" as="geometry" />
        </mxCell>
        <mxCell id="WMOx6KS_vKrs0a5ZA2XA-64" value="" style="endArrow=block;dashed=1;endFill=0;endSize=12;html=1;rounded=0;fontSize=12;curved=1;" edge="1" parent="WIyWlLk6GJQsqaUBKTNV-1" source="WMOx6KS_vKrs0a5ZA2XA-60" target="WMOx6KS_vKrs0a5ZA2XA-54">
          <mxGeometry width="160" relative="1" as="geometry">
            <mxPoint x="1280" y="328" as="sourcePoint" />
            <mxPoint x="1320" y="288" as="targetPoint" />
          </mxGeometry>
        </mxCell>
        <mxCell id="WMOx6KS_vKrs0a5ZA2XA-66" value="TypeSizeMapper" style="swimlane;fontStyle=1;align=center;verticalAlign=top;childLayout=stackLayout;horizontal=1;startSize=26;horizontalStack=0;resizeParent=1;resizeParentMax=0;resizeLast=0;collapsible=1;marginBottom=0;whiteSpace=wrap;html=1;" vertex="1" parent="WIyWlLk6GJQsqaUBKTNV-1">
          <mxGeometry x="880" y="320" width="400" height="86" as="geometry" />
        </mxCell>
        <mxCell id="WMOx6KS_vKrs0a5ZA2XA-67" value="" style="line;strokeWidth=1;fillColor=none;align=left;verticalAlign=middle;spacingTop=-1;spacingLeft=3;spacingRight=3;rotatable=0;labelPosition=right;points=[];portConstraint=eastwest;strokeColor=inherit;" vertex="1" parent="WMOx6KS_vKrs0a5ZA2XA-66">
          <mxGeometry y="26" width="400" height="8" as="geometry" />
        </mxCell>
        <mxCell id="WMOx6KS_vKrs0a5ZA2XA-68" value="-&amp;nbsp;addTypeSizePairs(fileInfo: QFileInfo, map: QMap&amp;lt;String, Integer&amp;gt;)" style="text;strokeColor=none;fillColor=none;align=left;verticalAlign=top;spacingLeft=4;spacingRight=4;overflow=hidden;rotatable=0;points=[[0,0.5],[1,0.5]];portConstraint=eastwest;whiteSpace=wrap;html=1;" vertex="1" parent="WMOx6KS_vKrs0a5ZA2XA-66">
          <mxGeometry y="34" width="400" height="26" as="geometry" />
        </mxCell>
        <mxCell id="WMOx6KS_vKrs0a5ZA2XA-69" value="+&amp;nbsp;getSizesMap(dirPath: String)" style="text;strokeColor=none;fillColor=none;align=left;verticalAlign=top;spacingLeft=4;spacingRight=4;overflow=hidden;rotatable=0;points=[[0,0.5],[1,0.5]];portConstraint=eastwest;whiteSpace=wrap;html=1;" vertex="1" parent="WMOx6KS_vKrs0a5ZA2XA-66">
          <mxGeometry y="60" width="400" height="26" as="geometry" />
        </mxCell>
        <mxCell id="WMOx6KS_vKrs0a5ZA2XA-70" value="" style="endArrow=block;dashed=1;endFill=0;endSize=12;html=1;rounded=0;fontSize=12;curved=1;" edge="1" parent="WIyWlLk6GJQsqaUBKTNV-1" source="WMOx6KS_vKrs0a5ZA2XA-66" target="WMOx6KS_vKrs0a5ZA2XA-54">
          <mxGeometry width="160" relative="1" as="geometry">
            <mxPoint x="1340" y="348" as="sourcePoint" />
            <mxPoint x="1360" y="238" as="targetPoint" />
          </mxGeometry>
        </mxCell>
        <mxCell id="WMOx6KS_vKrs0a5ZA2XA-71" value="IFileBrowser" style="swimlane;fontStyle=1;align=center;verticalAlign=top;childLayout=stackLayout;horizontal=1;startSize=26;horizontalStack=0;resizeParent=1;resizeParentMax=0;resizeLast=0;collapsible=1;marginBottom=0;whiteSpace=wrap;html=1;" vertex="1" parent="WIyWlLk6GJQsqaUBKTNV-1">
          <mxGeometry x="480" y="120" width="360" height="242" as="geometry" />
        </mxCell>
        <mxCell id="WMOx6KS_vKrs0a5ZA2XA-72" value="-&amp;nbsp;fileSystemModel:&amp;nbsp;QFileSystemModel" style="text;strokeColor=none;fillColor=none;align=left;verticalAlign=top;spacingLeft=4;spacingRight=4;overflow=hidden;rotatable=0;points=[[0,0.5],[1,0.5]];portConstraint=eastwest;whiteSpace=wrap;html=1;" vertex="1" parent="WMOx6KS_vKrs0a5ZA2XA-71">
          <mxGeometry y="26" width="360" height="26" as="geometry" />
        </mxCell>
        <mxCell id="WMOx6KS_vKrs0a5ZA2XA-82" value="-&amp;nbsp;fileSystemView:&amp;nbsp;QTreeView" style="text;strokeColor=none;fillColor=none;align=left;verticalAlign=top;spacingLeft=4;spacingRight=4;overflow=hidden;rotatable=0;points=[[0,0.5],[1,0.5]];portConstraint=eastwest;whiteSpace=wrap;html=1;" vertex="1" parent="WMOx6KS_vKrs0a5ZA2XA-71">
          <mxGeometry y="52" width="360" height="26" as="geometry" />
        </mxCell>
        <mxCell id="WMOx6KS_vKrs0a5ZA2XA-83" value="-&amp;nbsp;group:&amp;nbsp;QMenu" style="text;strokeColor=none;fillColor=none;align=left;verticalAlign=top;spacingLeft=4;spacingRight=4;overflow=hidden;rotatable=0;points=[[0,0.5],[1,0.5]];portConstraint=eastwest;whiteSpace=wrap;html=1;" vertex="1" parent="WMOx6KS_vKrs0a5ZA2XA-71">
          <mxGeometry y="78" width="360" height="26" as="geometry" />
        </mxCell>
        <mxCell id="WMOx6KS_vKrs0a5ZA2XA-84" value="-&amp;nbsp;rootDirPath: String" style="text;strokeColor=none;fillColor=none;align=left;verticalAlign=top;spacingLeft=4;spacingRight=4;overflow=hidden;rotatable=0;points=[[0,0.5],[1,0.5]];portConstraint=eastwest;whiteSpace=wrap;html=1;" vertex="1" parent="WMOx6KS_vKrs0a5ZA2XA-71">
          <mxGeometry y="104" width="360" height="26" as="geometry" />
        </mxCell>
        <mxCell id="WMOx6KS_vKrs0a5ZA2XA-73" value="" style="line;strokeWidth=1;fillColor=none;align=left;verticalAlign=middle;spacingTop=-1;spacingLeft=3;spacingRight=3;rotatable=0;labelPosition=right;points=[];portConstraint=eastwest;strokeColor=inherit;" vertex="1" parent="WMOx6KS_vKrs0a5ZA2XA-71">
          <mxGeometry y="130" width="360" height="8" as="geometry" />
        </mxCell>
        <mxCell id="WMOx6KS_vKrs0a5ZA2XA-74" value="&lt;i&gt;+&amp;nbsp;updateDisplay(sizesMap: QMap&amp;lt;String, Integer&amp;gt;)&lt;/i&gt;" style="text;strokeColor=none;fillColor=none;align=left;verticalAlign=top;spacingLeft=4;spacingRight=4;overflow=hidden;rotatable=0;points=[[0,0.5],[1,0.5]];portConstraint=eastwest;whiteSpace=wrap;html=1;" vertex="1" parent="WMOx6KS_vKrs0a5ZA2XA-71">
          <mxGeometry y="138" width="360" height="26" as="geometry" />
        </mxCell>
        <mxCell id="WMOx6KS_vKrs0a5ZA2XA-91" value="+&amp;nbsp;addStrategy(name: String, mapper: ISizeMapper): Boolean" style="text;strokeColor=none;fillColor=none;align=left;verticalAlign=top;spacingLeft=4;spacingRight=4;overflow=hidden;rotatable=0;points=[[0,0.5],[1,0.5]];portConstraint=eastwest;whiteSpace=wrap;html=1;" vertex="1" parent="WMOx6KS_vKrs0a5ZA2XA-71">
          <mxGeometry y="164" width="360" height="26" as="geometry" />
        </mxCell>
        <mxCell id="WMOx6KS_vKrs0a5ZA2XA-92" value="+&amp;nbsp;delStrategy(name: String): Boolean" style="text;strokeColor=none;fillColor=none;align=left;verticalAlign=top;spacingLeft=4;spacingRight=4;overflow=hidden;rotatable=0;points=[[0,0.5],[1,0.5]];portConstraint=eastwest;whiteSpace=wrap;html=1;" vertex="1" parent="WMOx6KS_vKrs0a5ZA2XA-71">
          <mxGeometry y="190" width="360" height="26" as="geometry" />
        </mxCell>
        <mxCell id="WMOx6KS_vKrs0a5ZA2XA-93" value="+&amp;nbsp;setStatus(fileBrowser: IFileBrowser)" style="text;strokeColor=none;fillColor=none;align=left;verticalAlign=top;spacingLeft=4;spacingRight=4;overflow=hidden;rotatable=0;points=[[0,0.5],[1,0.5]];portConstraint=eastwest;whiteSpace=wrap;html=1;" vertex="1" parent="WMOx6KS_vKrs0a5ZA2XA-71">
          <mxGeometry y="216" width="360" height="26" as="geometry" />
        </mxCell>
        <mxCell id="WMOx6KS_vKrs0a5ZA2XA-75" value="" style="endArrow=block;dashed=1;endFill=0;endSize=12;html=1;rounded=0;fontSize=12;curved=1;" edge="1" parent="WIyWlLk6GJQsqaUBKTNV-1" source="WMOx6KS_vKrs0a5ZA2XA-71" target="WMOx6KS_vKrs0a5ZA2XA-42">
          <mxGeometry width="160" relative="1" as="geometry">
            <mxPoint x="780" y="230" as="sourcePoint" />
            <mxPoint x="940" y="230" as="targetPoint" />
          </mxGeometry>
        </mxCell>
        <mxCell id="WMOx6KS_vKrs0a5ZA2XA-76" value="QMainWindow" style="swimlane;fontStyle=1;align=center;verticalAlign=top;childLayout=stackLayout;horizontal=1;startSize=26;horizontalStack=0;resizeParent=1;resizeParentMax=0;resizeLast=0;collapsible=1;marginBottom=0;whiteSpace=wrap;html=1;" vertex="1" collapsed="1" parent="WIyWlLk6GJQsqaUBKTNV-1">
          <mxGeometry x="880" y="130" width="120" height="30" as="geometry">
            <mxRectangle x="1290" y="130" width="160" height="34" as="alternateBounds" />
          </mxGeometry>
        </mxCell>
        <mxCell id="WMOx6KS_vKrs0a5ZA2XA-78" value="" style="line;strokeWidth=1;fillColor=none;align=left;verticalAlign=middle;spacingTop=-1;spacingLeft=3;spacingRight=3;rotatable=0;labelPosition=right;points=[];portConstraint=eastwest;strokeColor=inherit;" vertex="1" parent="WMOx6KS_vKrs0a5ZA2XA-76">
          <mxGeometry y="26" width="160" height="8" as="geometry" />
        </mxCell>
        <mxCell id="WMOx6KS_vKrs0a5ZA2XA-80" value="" style="endArrow=block;endSize=16;endFill=0;html=1;rounded=0;fontSize=12;curved=1;" edge="1" parent="WIyWlLk6GJQsqaUBKTNV-1" source="WMOx6KS_vKrs0a5ZA2XA-71" target="WMOx6KS_vKrs0a5ZA2XA-76">
          <mxGeometry width="160" relative="1" as="geometry">
            <mxPoint x="780" y="230" as="sourcePoint" />
            <mxPoint x="950" y="180" as="targetPoint" />
          </mxGeometry>
        </mxCell>
        <mxCell id="WMOx6KS_vKrs0a5ZA2XA-86" value="" style="endArrow=open;endFill=1;endSize=12;html=1;rounded=0;fontSize=12;curved=1;" edge="1" parent="WIyWlLk6GJQsqaUBKTNV-1" source="WMOx6KS_vKrs0a5ZA2XA-94" target="WMOx6KS_vKrs0a5ZA2XA-25">
          <mxGeometry width="160" relative="1" as="geometry">
            <mxPoint x="490" y="420" as="sourcePoint" />
            <mxPoint x="650" y="420" as="targetPoint" />
          </mxGeometry>
        </mxCell>
        <mxCell id="WMOx6KS_vKrs0a5ZA2XA-88" value="" style="endArrow=diamondThin;endFill=0;endSize=24;html=1;rounded=0;fontSize=12;curved=1;" edge="1" parent="WIyWlLk6GJQsqaUBKTNV-1" source="WMOx6KS_vKrs0a5ZA2XA-54" target="WMOx6KS_vKrs0a5ZA2XA-71">
          <mxGeometry width="160" relative="1" as="geometry">
            <mxPoint x="720" y="380" as="sourcePoint" />
            <mxPoint x="880" y="380" as="targetPoint" />
          </mxGeometry>
        </mxCell>
        <mxCell id="WMOx6KS_vKrs0a5ZA2XA-94" value="TableChartAdapter" style="swimlane;fontStyle=1;align=center;verticalAlign=top;childLayout=stackLayout;horizontal=1;startSize=26;horizontalStack=0;resizeParent=1;resizeParentMax=0;resizeLast=0;collapsible=1;marginBottom=0;whiteSpace=wrap;html=1;" vertex="1" parent="WIyWlLk6GJQsqaUBKTNV-1">
          <mxGeometry x="80" y="440" width="320" height="86" as="geometry" />
        </mxCell>
        <mxCell id="WMOx6KS_vKrs0a5ZA2XA-95" value="-&amp;nbsp;dirView:&amp;nbsp;QTableView" style="text;strokeColor=none;fillColor=none;align=left;verticalAlign=top;spacingLeft=4;spacingRight=4;overflow=hidden;rotatable=0;points=[[0,0.5],[1,0.5]];portConstraint=eastwest;whiteSpace=wrap;html=1;" vertex="1" parent="WMOx6KS_vKrs0a5ZA2XA-94">
          <mxGeometry y="26" width="320" height="26" as="geometry" />
        </mxCell>
        <mxCell id="WMOx6KS_vKrs0a5ZA2XA-96" value="" style="line;strokeWidth=1;fillColor=none;align=left;verticalAlign=middle;spacingTop=-1;spacingLeft=3;spacingRight=3;rotatable=0;labelPosition=right;points=[];portConstraint=eastwest;strokeColor=inherit;" vertex="1" parent="WMOx6KS_vKrs0a5ZA2XA-94">
          <mxGeometry y="52" width="320" height="8" as="geometry" />
        </mxCell>
        <mxCell id="WMOx6KS_vKrs0a5ZA2XA-97" value="+&amp;nbsp;updateDisplay(sizesMap: QMap&amp;lt;String, Integer&amp;gt;)" style="text;strokeColor=none;fillColor=none;align=left;verticalAlign=top;spacingLeft=4;spacingRight=4;overflow=hidden;rotatable=0;points=[[0,0.5],[1,0.5]];portConstraint=eastwest;whiteSpace=wrap;html=1;" vertex="1" parent="WMOx6KS_vKrs0a5ZA2XA-94">
          <mxGeometry y="60" width="320" height="26" as="geometry" />
        </mxCell>
        <mxCell id="WMOx6KS_vKrs0a5ZA2XA-98" value="" style="endArrow=block;dashed=1;endFill=0;endSize=12;html=1;rounded=0;fontSize=12;curved=1;" edge="1" parent="WIyWlLk6GJQsqaUBKTNV-1" source="WMOx6KS_vKrs0a5ZA2XA-94" target="WMOx6KS_vKrs0a5ZA2XA-71">
          <mxGeometry width="160" relative="1" as="geometry">
            <mxPoint x="520" y="390" as="sourcePoint" />
            <mxPoint x="680" y="390" as="targetPoint" />
          </mxGeometry>
        </mxCell>
        <mxCell id="WMOx6KS_vKrs0a5ZA2XA-100" value="BarChartAdapter" style="swimlane;fontStyle=1;align=center;verticalAlign=top;childLayout=stackLayout;horizontal=1;startSize=26;horizontalStack=0;resizeParent=1;resizeParentMax=0;resizeLast=0;collapsible=1;marginBottom=0;whiteSpace=wrap;html=1;" vertex="1" parent="WIyWlLk6GJQsqaUBKTNV-1">
          <mxGeometry x="440" y="440" width="320" height="60" as="geometry" />
        </mxCell>
        <mxCell id="WMOx6KS_vKrs0a5ZA2XA-102" value="" style="line;strokeWidth=1;fillColor=none;align=left;verticalAlign=middle;spacingTop=-1;spacingLeft=3;spacingRight=3;rotatable=0;labelPosition=right;points=[];portConstraint=eastwest;strokeColor=inherit;" vertex="1" parent="WMOx6KS_vKrs0a5ZA2XA-100">
          <mxGeometry y="26" width="320" height="8" as="geometry" />
        </mxCell>
        <mxCell id="WMOx6KS_vKrs0a5ZA2XA-103" value="+&amp;nbsp;updateDisplay(sizesMap: QMap&amp;lt;String, Integer&amp;gt;)" style="text;strokeColor=none;fillColor=none;align=left;verticalAlign=top;spacingLeft=4;spacingRight=4;overflow=hidden;rotatable=0;points=[[0,0.5],[1,0.5]];portConstraint=eastwest;whiteSpace=wrap;html=1;" vertex="1" parent="WMOx6KS_vKrs0a5ZA2XA-100">
          <mxGeometry y="34" width="320" height="26" as="geometry" />
        </mxCell>
        <mxCell id="WMOx6KS_vKrs0a5ZA2XA-104" value="" style="endArrow=block;dashed=1;endFill=0;endSize=12;html=1;rounded=0;fontSize=12;curved=1;" edge="1" parent="WIyWlLk6GJQsqaUBKTNV-1" source="WMOx6KS_vKrs0a5ZA2XA-100" target="WMOx6KS_vKrs0a5ZA2XA-71">
          <mxGeometry width="160" relative="1" as="geometry">
            <mxPoint x="259" y="450" as="sourcePoint" />
            <mxPoint x="490" y="338" as="targetPoint" />
          </mxGeometry>
        </mxCell>
        <mxCell id="WMOx6KS_vKrs0a5ZA2XA-105" value="" style="endArrow=open;endFill=1;endSize=12;html=1;rounded=0;fontSize=12;curved=1;" edge="1" parent="WIyWlLk6GJQsqaUBKTNV-1" source="WMOx6KS_vKrs0a5ZA2XA-100" target="WMOx6KS_vKrs0a5ZA2XA-11">
          <mxGeometry width="160" relative="1" as="geometry">
            <mxPoint x="440" y="410" as="sourcePoint" />
            <mxPoint x="610" y="540" as="targetPoint" />
          </mxGeometry>
        </mxCell>
        <mxCell id="WMOx6KS_vKrs0a5ZA2XA-106" value="PieChartAdapter" style="swimlane;fontStyle=1;align=center;verticalAlign=top;childLayout=stackLayout;horizontal=1;startSize=26;horizontalStack=0;resizeParent=1;resizeParentMax=0;resizeLast=0;collapsible=1;marginBottom=0;whiteSpace=wrap;html=1;" vertex="1" parent="WIyWlLk6GJQsqaUBKTNV-1">
          <mxGeometry x="800" y="440" width="320" height="60" as="geometry" />
        </mxCell>
        <mxCell id="WMOx6KS_vKrs0a5ZA2XA-107" value="" style="line;strokeWidth=1;fillColor=none;align=left;verticalAlign=middle;spacingTop=-1;spacingLeft=3;spacingRight=3;rotatable=0;labelPosition=right;points=[];portConstraint=eastwest;strokeColor=inherit;" vertex="1" parent="WMOx6KS_vKrs0a5ZA2XA-106">
          <mxGeometry y="26" width="320" height="8" as="geometry" />
        </mxCell>
        <mxCell id="WMOx6KS_vKrs0a5ZA2XA-108" value="+&amp;nbsp;updateDisplay(sizesMap: QMap&amp;lt;String, Integer&amp;gt;)" style="text;strokeColor=none;fillColor=none;align=left;verticalAlign=top;spacingLeft=4;spacingRight=4;overflow=hidden;rotatable=0;points=[[0,0.5],[1,0.5]];portConstraint=eastwest;whiteSpace=wrap;html=1;" vertex="1" parent="WMOx6KS_vKrs0a5ZA2XA-106">
          <mxGeometry y="34" width="320" height="26" as="geometry" />
        </mxCell>
        <mxCell id="WMOx6KS_vKrs0a5ZA2XA-109" value="" style="endArrow=block;dashed=1;endFill=0;endSize=12;html=1;rounded=0;fontSize=12;curved=1;" edge="1" parent="WIyWlLk6GJQsqaUBKTNV-1" source="WMOx6KS_vKrs0a5ZA2XA-106" target="WMOx6KS_vKrs0a5ZA2XA-71">
          <mxGeometry width="160" relative="1" as="geometry">
            <mxPoint x="548" y="450" as="sourcePoint" />
            <mxPoint x="700" y="420" as="targetPoint" />
          </mxGeometry>
        </mxCell>
        <mxCell id="WMOx6KS_vKrs0a5ZA2XA-110" value="" style="endArrow=open;endFill=1;endSize=12;html=1;rounded=0;fontSize=12;curved=1;" edge="1" parent="WIyWlLk6GJQsqaUBKTNV-1" source="WMOx6KS_vKrs0a5ZA2XA-106" target="WMOx6KS_vKrs0a5ZA2XA-17">
          <mxGeometry width="160" relative="1" as="geometry">
            <mxPoint x="680" y="530" as="sourcePoint" />
            <mxPoint x="840" y="530" as="targetPoint" />
          </mxGeometry>
        </mxCell>
      </root>
    </mxGraphModel>
  </diagram>
</mxfile>
